<?xml version="1.0" encoding="UTF-8"?>
<mxfile host="app.diagrams.net" modified="2025-07-29T00:00:00.000Z" agent="5.0" etag="example" version="24.6.4" type="device">
  <diagram name="E-Commerce Use Case Diagram" id="use-case-diagram">
    <mxGraphModel dx="1800" dy="1200" grid="1" gridSize="10" guides="1" tooltips="1" connect="1" arrows="1" fold="1" page="1" pageScale="1" pageWidth="1400" pageHeight="1000" math="0" shadow="0">
      <root>
        <mxCell id="0" />
        <mxCell id="1" parent="0" />
        
        <!-- System Boundary - Made larger for better spacing -->
        <mxCell id="system-boundary" value="E-Commerce System" style="rounded=0;whiteSpace=wrap;html=1;fillColor=none;strokeColor=#000000;strokeWidth=3;fontSize=18;fontStyle=1;align=center;verticalAlign=top;" vertex="1" parent="1">
          <mxGeometry x="350" y="120" width="900" height="700" as="geometry" />
        </mxCell>
        
        <!-- Title -->
        <mxCell id="title" value="E-Commerce System Use Case Diagram" style="text;html=1;strokeColor=none;fillColor=none;align=center;verticalAlign=middle;whiteSpace=wrap;rounded=0;fontSize=24;fontStyle=1;" vertex="1" parent="1">
          <mxGeometry x="500" y="40" width="600" height="50" as="geometry" />
        </mxCell>
        
        <!-- Subtitle -->
        <mxCell id="subtitle" value="Improved Layout with Better Spacing and Line Descriptions" style="text;html=1;strokeColor=none;fillColor=none;align=center;verticalAlign=middle;whiteSpace=wrap;rounded=0;fontSize=14;fontStyle=2;" vertex="1" parent="1">
          <mxGeometry x="500" y="85" width="600" height="25" as="geometry" />
        </mxCell>
        
        <!-- Actors - Repositioned for better spacing -->
        <!-- Customer -->
        <mxCell id="customer-actor" value="Customer" style="shape=umlActor;verticalLabelPosition=bottom;verticalAlign=top;html=1;outlineConnect=0;fillColor=#dae8fc;strokeColor=#6c8ebf;fontSize=12;fontStyle=1;" vertex="1" parent="1">
          <mxGeometry x="200" y="250" width="40" height="80" as="geometry" />
        </mxCell>
        
        <!-- Admin -->
        <mxCell id="admin-actor" value="Admin" style="shape=umlActor;verticalLabelPosition=bottom;verticalAlign=top;html=1;outlineConnect=0;fillColor=#f8cecc;strokeColor=#b85450;fontSize=12;fontStyle=1;" vertex="1" parent="1">
          <mxGeometry x="200" y="600" width="40" height="80" as="geometry" />
        </mxCell>
        
        <!-- Payment System -->
        <mxCell id="payment-actor" value="Payment&#xa;System" style="shape=umlActor;verticalLabelPosition=bottom;verticalAlign=top;html=1;outlineConnect=0;fillColor=#e1d5e7;strokeColor=#9673a6;fontSize=12;fontStyle=1;" vertex="1" parent="1">
          <mxGeometry x="1350" y="400" width="40" height="80" as="geometry" />
        </mxCell>
        
        <!-- Shipping System -->
        <mxCell id="shipping-actor" value="Shipping&#xa;System" style="shape=umlActor;verticalLabelPosition=bottom;verticalAlign=top;html=1;outlineConnect=0;fillColor=#d5e8d4;strokeColor=#82b366;fontSize=12;fontStyle=1;" vertex="1" parent="1">
          <mxGeometry x="1350" y="600" width="40" height="80" as="geometry" />
        </mxCell>
        
        <!-- Use Cases - Reorganized with more spacing -->
        <!-- Row 1: Browsing and Search -->
        <mxCell id="browse-products" value="Browse Products" style="ellipse;whiteSpace=wrap;html=1;fillColor=#dae8fc;strokeColor=#6c8ebf;fontSize=11;" vertex="1" parent="1">
          <mxGeometry x="400" y="160" width="140" height="70" as="geometry" />
        </mxCell>
        
        <mxCell id="search-products" value="Search Products" style="ellipse;whiteSpace=wrap;html=1;fillColor=#dae8fc;strokeColor=#6c8ebf;fontSize=11;" vertex="1" parent="1">
          <mxGeometry x="580" y="160" width="140" height="70" as="geometry" />
        </mxCell>
        
        <mxCell id="view-product-details" value="View Product&#xa;Details" style="ellipse;whiteSpace=wrap;html=1;fillColor=#dae8fc;strokeColor=#6c8ebf;fontSize=11;" vertex="1" parent="1">
          <mxGeometry x="760" y="160" width="140" height="70" as="geometry" />
        </mxCell>
        
        <!-- Row 2: Account Management -->
        <mxCell id="register-account" value="Register Account" style="ellipse;whiteSpace=wrap;html=1;fillColor=#dae8fc;strokeColor=#6c8ebf;fontSize=11;" vertex="1" parent="1">
          <mxGeometry x="400" y="270" width="140" height="70" as="geometry" />
        </mxCell>
        
        <mxCell id="login" value="User Login" style="ellipse;whiteSpace=wrap;html=1;fillColor=#dae8fc;strokeColor=#6c8ebf;fontSize=11;" vertex="1" parent="1">
          <mxGeometry x="580" y="270" width="140" height="70" as="geometry" />
        </mxCell>
        
        <mxCell id="manage-profile" value="Manage Profile" style="ellipse;whiteSpace=wrap;html=1;fillColor=#dae8fc;strokeColor=#6c8ebf;fontSize=11;" vertex="1" parent="1">
          <mxGeometry x="760" y="270" width="140" height="70" as="geometry" />
        </mxCell>
        
        <!-- Row 3: Shopping Cart -->
        <mxCell id="add-to-cart" value="Add to Cart" style="ellipse;whiteSpace=wrap;html=1;fillColor=#dae8fc;strokeColor=#6c8ebf;fontSize=11;" vertex="1" parent="1">
          <mxGeometry x="400" y="380" width="140" height="70" as="geometry" />
        </mxCell>
        
        <mxCell id="view-cart" value="View Cart" style="ellipse;whiteSpace=wrap;html=1;fillColor=#dae8fc;strokeColor=#6c8ebf;fontSize=11;" vertex="1" parent="1">
          <mxGeometry x="580" y="380" width="140" height="70" as="geometry" />
        </mxCell>
        
        <mxCell id="update-cart" value="Update Cart&#xa;Items" style="ellipse;whiteSpace=wrap;html=1;fillColor=#dae8fc;strokeColor=#6c8ebf;fontSize=11;" vertex="1" parent="1">
          <mxGeometry x="760" y="380" width="140" height="70" as="geometry" />
        </mxCell>
        
        <!-- Row 4: Checkout and Payment -->
        <mxCell id="checkout" value="Checkout" style="ellipse;whiteSpace=wrap;html=1;fillColor=#dae8fc;strokeColor=#6c8ebf;fontSize=11;" vertex="1" parent="1">
          <mxGeometry x="400" y="490" width="140" height="70" as="geometry" />
        </mxCell>
        
        <mxCell id="make-payment" value="Make Payment" style="ellipse;whiteSpace=wrap;html=1;fillColor=#fff2cc;strokeColor=#d6b656;fontSize=11;" vertex="1" parent="1">
          <mxGeometry x="580" y="490" width="140" height="70" as="geometry" />
        </mxCell>
        
        <mxCell id="process-payment" value="Process Payment" style="ellipse;whiteSpace=wrap;html=1;fillColor=#e1d5e7;strokeColor=#9673a6;fontSize=11;" vertex="1" parent="1">
          <mxGeometry x="1050" y="400" width="140" height="70" as="geometry" />
        </mxCell>
        
        <!-- Row 5: Order Management -->
        <mxCell id="track-order" value="Track Order" style="ellipse;whiteSpace=wrap;html=1;fillColor=#dae8fc;strokeColor=#6c8ebf;fontSize=11;" vertex="1" parent="1">
          <mxGeometry x="760" y="490" width="140" height="70" as="geometry" />
        </mxCell>
        
        <mxCell id="view-order-history" value="View Order&#xa;History" style="ellipse;whiteSpace=wrap;html=1;fillColor=#dae8fc;strokeColor=#6c8ebf;fontSize=11;" vertex="1" parent="1">
          <mxGeometry x="940" y="490" width="140" height="70" as="geometry" />
        </mxCell>
        
        <!-- Row 6: Reviews and Feedback -->
        <mxCell id="write-review" value="Write Product&#xa;Review" style="ellipse;whiteSpace=wrap;html=1;fillColor=#dae8fc;strokeColor=#6c8ebf;fontSize=11;" vertex="1" parent="1">
          <mxGeometry x="400" y="600" width="140" height="70" as="geometry" />
        </mxCell>
        
        <!-- Admin Use Cases - Bottom section with more space -->
        <mxCell id="manage-products" value="Manage Products" style="ellipse;whiteSpace=wrap;html=1;fillColor=#f8cecc;strokeColor=#b85450;fontSize=11;" vertex="1" parent="1">
          <mxGeometry x="580" y="600" width="140" height="70" as="geometry" />
        </mxCell>
        
        <mxCell id="manage-users" value="Manage Users" style="ellipse;whiteSpace=wrap;html=1;fillColor=#f8cecc;strokeColor=#b85450;fontSize=11;" vertex="1" parent="1">
          <mxGeometry x="760" y="600" width="140" height="70" as="geometry" />
        </mxCell>
        
        <mxCell id="view-reports" value="View Reports &amp;&#xa;Analytics" style="ellipse;whiteSpace=wrap;html=1;fillColor=#f8cecc;strokeColor=#b85450;fontSize=11;" vertex="1" parent="1">
          <mxGeometry x="940" y="600" width="140" height="70" as="geometry" />
        </mxCell>
        
        <mxCell id="manage-orders" value="Manage Orders" style="ellipse;whiteSpace=wrap;html=1;fillColor=#f8cecc;strokeColor=#b85450;fontSize=11;" vertex="1" parent="1">
          <mxGeometry x="580" y="720" width="140" height="70" as="geometry" />
        </mxCell>
        
        <mxCell id="manage-inventory" value="Manage&#xa;Inventory" style="ellipse;whiteSpace=wrap;html=1;fillColor=#f8cecc;strokeColor=#b85450;fontSize=11;" vertex="1" parent="1">
          <mxGeometry x="760" y="720" width="140" height="70" as="geometry" />
        </mxCell>
        
        <!-- Shipping Use Cases -->
        <mxCell id="calculate-shipping" value="Calculate&#xa;Shipping Cost" style="ellipse;whiteSpace=wrap;html=1;fillColor=#d5e8d4;strokeColor=#82b366;fontSize=11;" vertex="1" parent="1">
          <mxGeometry x="1050" y="600" width="140" height="70" as="geometry" />
        </mxCell>
        
        <mxCell id="update-tracking" value="Update Tracking&#xa;Information" style="ellipse;whiteSpace=wrap;html=1;fillColor=#d5e8d4;strokeColor=#82b366;fontSize=11;" vertex="1" parent="1">
          <mxGeometry x="1050" y="720" width="140" height="70" as="geometry" />
        </mxCell>
        
        <!-- Shared/Helper Use Cases -->
        <mxCell id="validate-user" value="Validate User&#xa;Credentials" style="ellipse;whiteSpace=wrap;html=1;fillColor=#fff2cc;strokeColor=#d6b656;fontSize=11;" vertex="1" parent="1">
          <mxGeometry x="940" y="270" width="140" height="70" as="geometry" />
        </mxCell>
        
        <mxCell id="send-notification" value="Send Email&#xa;Notification" style="ellipse;whiteSpace=wrap;html=1;fillColor=#fff2cc;strokeColor=#d6b656;fontSize=11;" vertex="1" parent="1">
          <mxGeometry x="940" y="380" width="140" height="70" as="geometry" />
        </mxCell>
        
        <!-- Association Lines (Solid lines - Actor to Use Case relationships) -->
        <!-- Customer Associations with cleaner routing -->
        <mxCell id="customer-browse" value="" style="endArrow=none;html=1;rounded=0;strokeWidth=2;strokeColor=#6c8ebf;exitX=1;exitY=0.3333333333333333;exitDx=0;exitDy=0;exitPerimeter=0;entryX=0;entryY=0.5;entryDx=0;entryDy=0;" edge="1" parent="1" source="customer-actor" target="browse-products">
          <mxGeometry width="50" height="50" relative="1" as="geometry">
            <mxPoint x="300" y="300" as="sourcePoint" />
            <mxPoint x="350" y="250" as="targetPoint" />
          </mxGeometry>
        </mxCell>
        
        <mxCell id="customer-search" value="" style="endArrow=none;html=1;rounded=0;strokeWidth=2;strokeColor=#6c8ebf;exitX=1;exitY=0.3333333333333333;exitDx=0;exitDy=0;exitPerimeter=0;entryX=0;entryY=0.5;entryDx=0;entryDy=0;" edge="1" parent="1" source="customer-actor" target="search-products">
          <mxGeometry width="50" height="50" relative="1" as="geometry">
            <mxPoint x="300" y="300" as="sourcePoint" />
            <mxPoint x="350" y="250" as="targetPoint" />
          </mxGeometry>
        </mxCell>
        
        <mxCell id="customer-register" value="" style="endArrow=none;html=1;rounded=0;strokeWidth=2;strokeColor=#6c8ebf;exitX=1;exitY=0.3333333333333333;exitDx=0;exitDy=0;exitPerimeter=0;entryX=0;entryY=0.5;entryDx=0;entryDy=0;" edge="1" parent="1" source="customer-actor" target="register-account">
          <mxGeometry width="50" height="50" relative="1" as="geometry">
            <mxPoint x="300" y="300" as="sourcePoint" />
            <mxPoint x="350" y="250" as="targetPoint" />
          </mxGeometry>
        </mxCell>
        
        <mxCell id="customer-login" value="" style="endArrow=none;html=1;rounded=0;strokeWidth=2;strokeColor=#6c8ebf;exitX=1;exitY=0.3333333333333333;exitDx=0;exitDy=0;exitPerimeter=0;entryX=0;entryY=0.5;entryDx=0;entryDy=0;" edge="1" parent="1" source="customer-actor" target="login">
          <mxGeometry width="50" height="50" relative="1" as="geometry">
            <mxPoint x="300" y="300" as="sourcePoint" />
            <mxPoint x="350" y="250" as="targetPoint" />
          </mxGeometry>
        </mxCell>
        
        <mxCell id="customer-addcart" value="" style="endArrow=none;html=1;rounded=0;strokeWidth=2;strokeColor=#6c8ebf;exitX=1;exitY=0.3333333333333333;exitDx=0;exitDy=0;exitPerimeter=0;entryX=0;entryY=0.5;entryDx=0;entryDy=0;" edge="1" parent="1" source="customer-actor" target="add-to-cart">
          <mxGeometry width="50" height="50" relative="1" as="geometry">
            <mxPoint x="300" y="300" as="sourcePoint" />
            <mxPoint x="350" y="250" as="targetPoint" />
          </mxGeometry>
        </mxCell>
        
        <mxCell id="customer-viewcart" value="" style="endArrow=none;html=1;rounded=0;strokeWidth=2;strokeColor=#6c8ebf;exitX=1;exitY=0.3333333333333333;exitDx=0;exitDy=0;exitPerimeter=0;entryX=0;entryY=0.5;entryDx=0;entryDy=0;" edge="1" parent="1" source="customer-actor" target="view-cart">
          <mxGeometry width="50" height="50" relative="1" as="geometry">
            <mxPoint x="300" y="300" as="sourcePoint" />
            <mxPoint x="350" y="250" as="targetPoint" />
          </mxGeometry>
        </mxCell>
        
        <mxCell id="customer-checkout" value="" style="endArrow=none;html=1;rounded=0;strokeWidth=2;strokeColor=#6c8ebf;exitX=1;exitY=0.3333333333333333;exitDx=0;exitDy=0;exitPerimeter=0;entryX=0;entryY=0.5;entryDx=0;entryDy=0;" edge="1" parent="1" source="customer-actor" target="checkout">
          <mxGeometry width="50" height="50" relative="1" as="geometry">
            <mxPoint x="300" y="300" as="sourcePoint" />
            <mxPoint x="350" y="250" as="targetPoint" />
          </mxGeometry>
        </mxCell>
        
        <mxCell id="customer-track" value="" style="endArrow=none;html=1;rounded=0;strokeWidth=2;strokeColor=#6c8ebf;exitX=1;exitY=0.3333333333333333;exitDx=0;exitDy=0;exitPerimeter=0;entryX=0;entryY=0.5;entryDx=0;entryDy=0;" edge="1" parent="1" source="customer-actor" target="track-order">
          <mxGeometry width="50" height="50" relative="1" as="geometry">
            <mxPoint x="300" y="300" as="sourcePoint" />
            <mxPoint x="350" y="250" as="targetPoint" />
          </mxGeometry>
        </mxCell>
        
        <mxCell id="customer-history" value="" style="endArrow=none;html=1;rounded=0;strokeWidth=2;strokeColor=#6c8ebf;exitX=1;exitY=0.3333333333333333;exitDx=0;exitDy=0;exitPerimeter=0;entryX=0;entryY=0.5;entryDx=0;entryDy=0;" edge="1" parent="1" source="customer-actor" target="view-order-history">
          <mxGeometry width="50" height="50" relative="1" as="geometry">
            <mxPoint x="300" y="300" as="sourcePoint" />
            <mxPoint x="350" y="250" as="targetPoint" />
          </mxGeometry>
        </mxCell>
        
        <mxCell id="customer-review" value="" style="endArrow=none;html=1;rounded=0;strokeWidth=2;strokeColor=#6c8ebf;exitX=1;exitY=0.3333333333333333;exitDx=0;exitDy=0;exitPerimeter=0;entryX=0;entryY=0.5;entryDx=0;entryDy=0;" edge="1" parent="1" source="customer-actor" target="write-review">
          <mxGeometry width="50" height="50" relative="1" as="geometry">
            <mxPoint x="300" y="300" as="sourcePoint" />
            <mxPoint x="350" y="250" as="targetPoint" />
          </mxGeometry>
        </mxCell>
        
        <mxCell id="customer-profile" value="" style="endArrow=none;html=1;rounded=0;strokeWidth=2;strokeColor=#6c8ebf;exitX=1;exitY=0.3333333333333333;exitDx=0;exitDy=0;exitPerimeter=0;entryX=0;entryY=0.5;entryDx=0;entryDy=0;" edge="1" parent="1" source="customer-actor" target="manage-profile">
          <mxGeometry width="50" height="50" relative="1" as="geometry">
            <mxPoint x="300" y="300" as="sourcePoint" />
            <mxPoint x="350" y="250" as="targetPoint" />
          </mxGeometry>
        </mxCell>
        
        <!-- Admin Associations -->
        <mxCell id="admin-products" value="" style="endArrow=none;html=1;rounded=0;strokeWidth=2;strokeColor=#b85450;exitX=1;exitY=0.3333333333333333;exitDx=0;exitDy=0;exitPerimeter=0;entryX=0;entryY=0.5;entryDx=0;entryDy=0;" edge="1" parent="1" source="admin-actor" target="manage-products">
          <mxGeometry width="50" height="50" relative="1" as="geometry">
            <mxPoint x="300" y="600" as="sourcePoint" />
            <mxPoint x="350" y="550" as="targetPoint" />
          </mxGeometry>
        </mxCell>
        
        <mxCell id="admin-users" value="" style="endArrow=none;html=1;rounded=0;strokeWidth=2;strokeColor=#b85450;exitX=1;exitY=0.3333333333333333;exitDx=0;exitDy=0;exitPerimeter=0;entryX=0;entryY=0.5;entryDx=0;entryDy=0;" edge="1" parent="1" source="admin-actor" target="manage-users">
          <mxGeometry width="50" height="50" relative="1" as="geometry">
            <mxPoint x="300" y="600" as="sourcePoint" />
            <mxPoint x="350" y="550" as="targetPoint" />
          </mxGeometry>
        </mxCell>
        
        <mxCell id="admin-reports" value="" style="endArrow=none;html=1;rounded=0;strokeWidth=2;strokeColor=#b85450;exitX=1;exitY=0.3333333333333333;exitDx=0;exitDy=0;exitPerimeter=0;entryX=0;entryY=0.5;entryDx=0;entryDy=0;" edge="1" parent="1" source="admin-actor" target="view-reports">
          <mxGeometry width="50" height="50" relative="1" as="geometry">
            <mxPoint x="300" y="600" as="sourcePoint" />
            <mxPoint x="350" y="550" as="targetPoint" />
          </mxGeometry>
        </mxCell>
        
        <mxCell id="admin-orders" value="" style="endArrow=none;html=1;rounded=0;strokeWidth=2;strokeColor=#b85450;exitX=1;exitY=0.3333333333333333;exitDx=0;exitDy=0;exitPerimeter=0;entryX=0;entryY=0.5;entryDx=0;entryDy=0;" edge="1" parent="1" source="admin-actor" target="manage-orders">
          <mxGeometry width="50" height="50" relative="1" as="geometry">
            <mxPoint x="300" y="600" as="sourcePoint" />
            <mxPoint x="350" y="550" as="targetPoint" />
          </mxGeometry>
        </mxCell>
        
        <mxCell id="admin-inventory" value="" style="endArrow=none;html=1;rounded=0;strokeWidth=2;strokeColor=#b85450;exitX=1;exitY=0.3333333333333333;exitDx=0;exitDy=0;exitPerimeter=0;entryX=0;entryY=0.5;entryDx=0;entryDy=0;" edge="1" parent="1" source="admin-actor" target="manage-inventory">
          <mxGeometry width="50" height="50" relative="1" as="geometry">
            <mxPoint x="300" y="600" as="sourcePoint" />
            <mxPoint x="350" y="550" as="targetPoint" />
          </mxGeometry>
        </mxCell>
        
        <!-- External System Associations -->
        <mxCell id="payment-process" value="" style="endArrow=none;html=1;rounded=0;strokeWidth=2;strokeColor=#9673a6;exitX=0;exitY=0.3333333333333333;exitDx=0;exitDy=0;exitPerimeter=0;entryX=1;entryY=0.5;entryDx=0;entryDy=0;" edge="1" parent="1" source="payment-actor" target="process-payment">
          <mxGeometry width="50" height="50" relative="1" as="geometry">
            <mxPoint x="1300" y="400" as="sourcePoint" />
            <mxPoint x="1250" y="350" as="targetPoint" />
          </mxGeometry>
        </mxCell>
        
        <mxCell id="shipping-calculate" value="" style="endArrow=none;html=1;rounded=0;strokeWidth=2;strokeColor=#82b366;exitX=0;exitY=0.3333333333333333;exitDx=0;exitDy=0;exitPerimeter=0;entryX=1;entryY=0.5;entryDx=0;entryDy=0;" edge="1" parent="1" source="shipping-actor" target="calculate-shipping">
          <mxGeometry width="50" height="50" relative="1" as="geometry">
            <mxPoint x="1300" y="600" as="sourcePoint" />
            <mxPoint x="1250" y="550" as="targetPoint" />
          </mxGeometry>
        </mxCell>
        
        <mxCell id="shipping-tracking" value="" style="endArrow=none;html=1;rounded=0;strokeWidth=2;strokeColor=#82b366;exitX=0;exitY=0.3333333333333333;exitDx=0;exitDy=0;exitPerimeter=0;entryX=1;entryY=0.5;entryDx=0;entryDy=0;" edge="1" parent="1" source="shipping-actor" target="update-tracking">
          <mxGeometry width="50" height="50" relative="1" as="geometry">
            <mxPoint x="1300" y="600" as="sourcePoint" />
            <mxPoint x="1250" y="550" as="targetPoint" />
          </mxGeometry>
        </mxCell>
        
        <!-- Include Relationships (Dashed lines with open arrows) -->
        <mxCell id="checkout-include-payment" value="&lt;&lt;include&gt;&gt;" style="endArrow=open;endSize=12;dashed=1;html=1;rounded=0;strokeWidth=2;strokeColor=#d6b656;exitX=1;exitY=0.5;exitDx=0;exitDy=0;entryX=0;entryY=0.5;entryDx=0;entryDy=0;fontSize=10;fontStyle=1;" edge="1" parent="1" source="checkout" target="make-payment">
          <mxGeometry width="160" relative="1" as="geometry">
            <mxPoint x="550" y="525" as="sourcePoint" />
            <mxPoint x="580" y="525" as="targetPoint" />
          </mxGeometry>
        </mxCell>
        
        <mxCell id="payment-include-validate" value="&lt;&lt;include&gt;&gt;" style="endArrow=open;endSize=12;dashed=1;html=1;rounded=0;strokeWidth=2;strokeColor=#d6b656;exitX=1;exitY=0;exitDx=0;exitDy=0;entryX=0;entryY=1;entryDx=0;entryDy=0;fontSize=10;fontStyle=1;" edge="1" parent="1" source="make-payment" target="validate-user">
          <mxGeometry width="160" relative="1" as="geometry">
            <mxPoint x="720" y="490" as="sourcePoint" />
            <mxPoint x="940" y="340" as="targetPoint" />
          </mxGeometry>
        </mxCell>
        
        <mxCell id="checkout-include-notify" value="&lt;&lt;include&gt;&gt;" style="endArrow=open;endSize=12;dashed=1;html=1;rounded=0;strokeWidth=2;strokeColor=#d6b656;exitX=1;exitY=1;exitDx=0;exitDy=0;entryX=0;entryY=0;entryDx=0;entryDy=0;fontSize=10;fontStyle=1;" edge="1" parent="1" source="checkout" target="send-notification">
          <mxGeometry width="160" relative="1" as="geometry">
            <mxPoint x="540" y="560" as="sourcePoint" />
            <mxPoint x="940" y="380" as="targetPoint" />
          </mxGeometry>
        </mxCell>
        
        <!-- Extend Relationships (Dashed lines with open arrows) -->
        <mxCell id="payment-extend-process" value="&lt;&lt;extend&gt;&gt;" style="endArrow=open;endSize=12;dashed=1;html=1;rounded=0;strokeWidth=2;strokeColor=#9673a6;exitX=1;exitY=0;exitDx=0;exitDy=0;entryX=0;entryY=1;entryDx=0;entryDy=0;fontSize=10;fontStyle=1;" edge="1" parent="1" source="make-payment" target="process-payment">
          <mxGeometry width="160" relative="1" as="geometry">
            <mxPoint x="720" y="490" as="sourcePoint" />
            <mxPoint x="1050" y="470" as="targetPoint" />
          </mxGeometry>
        </mxCell>
        
        <!-- Enhanced Legend with Line Descriptions -->
        <mxCell id="legend-box" value="" style="rounded=1;whiteSpace=wrap;html=1;fillColor=#f5f5f5;strokeColor=#666666;strokeWidth=2;" vertex="1" parent="1">
          <mxGeometry x="50" y="850" width="450" height="140" as="geometry" />
        </mxCell>
        
        <mxCell id="legend-title" value="Legend - Use Case Elements and Relationships" style="text;html=1;strokeColor=none;fillColor=none;align=center;verticalAlign=middle;whiteSpace=wrap;rounded=0;fontSize=16;fontStyle=1;" vertex="1" parent="1">
          <mxGeometry x="60" y="860" width="430" height="25" as="geometry" />
        </mxCell>
        
        <!-- Use Case Color Legend -->
        <mxCell id="legend-customer" value="Customer&#xa;Use Cases" style="ellipse;whiteSpace=wrap;html=1;fillColor=#dae8fc;strokeColor=#6c8ebf;fontSize=9;" vertex="1" parent="1">
          <mxGeometry x="70" y="890" width="70" height="30" as="geometry" />
        </mxCell>
        
        <mxCell id="legend-admin" value="Admin&#xa;Use Cases" style="ellipse;whiteSpace=wrap;html=1;fillColor=#f8cecc;strokeColor=#b85450;fontSize=9;" vertex="1" parent="1">
          <mxGeometry x="150" y="890" width="70" height="30" as="geometry" />
        </mxCell>
        
        <mxCell id="legend-shared" value="Shared/Helper&#xa;Use Cases" style="ellipse;whiteSpace=wrap;html=1;fillColor=#fff2cc;strokeColor=#d6b656;fontSize=9;" vertex="1" parent="1">
          <mxGeometry x="230" y="890" width="70" height="30" as="geometry" />
        </mxCell>
        
        <mxCell id="legend-external" value="External&#xa;Systems" style="ellipse;whiteSpace=wrap;html=1;fillColor=#e1d5e7;strokeColor=#9673a6;fontSize=9;" vertex="1" parent="1">
          <mxGeometry x="310" y="890" width="70" height="30" as="geometry" />
        </mxCell>
        
        <!-- Line Type Legend -->
        <mxCell id="legend-association-line" value="" style="endArrow=none;html=1;rounded=0;strokeWidth=2;strokeColor=#666666;" edge="1" parent="1">
          <mxGeometry width="60" relative="1" as="geometry">
            <mxPoint x="70" y="940" as="sourcePoint" />
            <mxPoint x="130" y="940" as="targetPoint" />
          </mxGeometry>
        </mxCell>
        <mxCell id="legend-association-text" value="Association: Actor uses Use Case" style="text;html=1;strokeColor=none;fillColor=none;align=left;verticalAlign=middle;whiteSpace=wrap;rounded=0;fontSize=10;" vertex="1" parent="1">
          <mxGeometry x="140" y="935" width="180" height="15" as="geometry" />
        </mxCell>
        
        <mxCell id="legend-include-line" value="&lt;&lt;include&gt;&gt;" style="endArrow=open;endSize=8;dashed=1;html=1;rounded=0;strokeWidth=2;strokeColor=#d6b656;fontSize=9;" edge="1" parent="1">
          <mxGeometry width="80" relative="1" as="geometry">
            <mxPoint x="70" y="955" as="sourcePoint" />
            <mxPoint x="130" y="955" as="targetPoint" />
          </mxGeometry>
        </mxCell>
        <mxCell id="legend-include-text" value="Include: Mandatory sub-functionality" style="text;html=1;strokeColor=none;fillColor=none;align=left;verticalAlign=middle;whiteSpace=wrap;rounded=0;fontSize=10;" vertex="1" parent="1">
          <mxGeometry x="140" y="950" width="180" height="15" as="geometry" />
        </mxCell>
        
        <mxCell id="legend-extend-line" value="&lt;&lt;extend&gt;&gt;" style="endArrow=open;endSize=8;dashed=1;html=1;rounded=0;strokeWidth=2;strokeColor=#9673a6;fontSize=9;" edge="1" parent="1">
          <mxGeometry width="80" relative="1" as="geometry">
            <mxPoint x="70" y="970" as="sourcePoint" />
            <mxPoint x="130" y="970" as="targetPoint" />
          </mxGeometry>
        </mxCell>
        <mxCell id="legend-extend-text" value="Extend: Optional additional functionality" style="text;html=1;strokeColor=none;fillColor=none;align=left;verticalAlign=middle;whiteSpace=wrap;rounded=0;fontSize=10;" vertex="1" parent="1">
          <mxGeometry x="140" y="965" width="180" height="15" as="geometry" />
        </mxCell>
        
        <!-- Relationship Descriptions Box -->
        <mxCell id="descriptions-box" value="" style="rounded=1;whiteSpace=wrap;html=1;fillColor=#f0f8ff;strokeColor=#4169E1;strokeWidth=2;" vertex="1" parent="1">
          <mxGeometry x="550" y="850" width="400" height="140" as="geometry" />
        </mxCell>
        
        <mxCell id="descriptions-title" value="Relationship Descriptions" style="text;html=1;strokeColor=none;fillColor=none;align=center;verticalAlign=middle;whiteSpace=wrap;rounded=0;fontSize=16;fontStyle=1;" vertex="1" parent="1">
          <mxGeometry x="560" y="860" width="380" height="25" as="geometry" />
        </mxCell>
        
        <mxCell id="descriptions-text" value="• SOLID LINES (—): Direct associations between actors and use cases&#xa;  Example: Customer —— Browse Products&#xa;&#xa;• DASHED LINES WITH &lt;&lt;include&gt;&gt;: Mandatory relationships&#xa;  Example: Checkout includes Make Payment (required step)&#xa;&#xa;• DASHED LINES WITH &lt;&lt;extend&gt;&gt;: Optional relationships&#xa;  Example: Make Payment optionally extends to external processing" style="text;html=1;strokeColor=none;fillColor=none;align=left;verticalAlign=top;whiteSpace=wrap;rounded=0;fontSize=11;" vertex="1" parent="1">
          <mxGeometry x="560" y="890" width="380" height="95" as="geometry" />
        </mxCell>
        
      </root>
    </mxGraphModel>
  </diagram>
</mxfile>
                </mxCell>
                <mxCell id="view-order-history" value="View Order&#xa;History" style="ellipse;whiteSpace=wrap;html=1;fillColor=#dae8fc;strokeColor=#6c8ebf;" parent="1" vertex="1">
                    <mxGeometry x="750" y="340" width="120" height="60" as="geometry"/>
                </mxCell>
                <mxCell id="write-review" value="Write Product&#xa;Review" style="ellipse;whiteSpace=wrap;html=1;fillColor=#dae8fc;strokeColor=#6c8ebf;" parent="1" vertex="1">
                    <mxGeometry x="350" y="360" width="120" height="60" as="geometry"/>
                </mxCell>
                <mxCell id="manage-profile" value="Manage Profile" style="ellipse;whiteSpace=wrap;html=1;fillColor=#dae8fc;strokeColor=#6c8ebf;" parent="1" vertex="1">
                    <mxGeometry x="500" y="360" width="120" height="60" as="geometry"/>
                </mxCell>
                <mxCell id="manage-products" value="Manage Products" style="ellipse;whiteSpace=wrap;html=1;fillColor=#f8cecc;strokeColor=#b85450;" parent="1" vertex="1">
                    <mxGeometry x="350" y="480" width="120" height="60" as="geometry"/>
                </mxCell>
                <mxCell id="manage-users" value="Manage Users" style="ellipse;whiteSpace=wrap;html=1;fillColor=#f8cecc;strokeColor=#b85450;" parent="1" vertex="1">
                    <mxGeometry x="500" y="480" width="120" height="60" as="geometry"/>
                </mxCell>
                <mxCell id="view-reports" value="View Reports" style="ellipse;whiteSpace=wrap;html=1;fillColor=#f8cecc;strokeColor=#b85450;" parent="1" vertex="1">
                    <mxGeometry x="650" y="480" width="120" height="60" as="geometry"/>
                </mxCell>
                <mxCell id="manage-orders" value="Manage Orders" style="ellipse;whiteSpace=wrap;html=1;fillColor=#f8cecc;strokeColor=#b85450;" parent="1" vertex="1">
                    <mxGeometry x="750" y="540" width="120" height="60" as="geometry"/>
                </mxCell>
                <mxCell id="manage-categories" value="Manage&#xa;Categories" style="ellipse;whiteSpace=wrap;html=1;fillColor=#f8cecc;strokeColor=#b85450;" parent="1" vertex="1">
                    <mxGeometry x="350" y="560" width="120" height="60" as="geometry"/>
                </mxCell>
                <mxCell id="manage-inventory" value="Manage&#xa;Inventory" style="ellipse;whiteSpace=wrap;html=1;fillColor=#f8cecc;strokeColor=#b85450;" parent="1" vertex="1">
                    <mxGeometry x="500" y="560" width="120" height="60" as="geometry"/>
                </mxCell>
                <mxCell id="process-refunds" value="Process Refunds" style="ellipse;whiteSpace=wrap;html=1;fillColor=#f8cecc;strokeColor=#b85450;" parent="1" vertex="1">
                    <mxGeometry x="650" y="560" width="120" height="60" as="geometry"/>
                </mxCell>
                <mxCell id="process-payment" value="Process Payment" style="ellipse;whiteSpace=wrap;html=1;fillColor=#e1d5e7;strokeColor=#9673a6;" parent="1" vertex="1">
                    <mxGeometry x="750" y="280" width="120" height="60" as="geometry"/>
                </mxCell>
                <mxCell id="calculate-shipping" value="Calculate&#xa;Shipping" style="ellipse;whiteSpace=wrap;html=1;fillColor=#d5e8d4;strokeColor=#82b366;" parent="1" vertex="1">
                    <mxGeometry x="650" y="620" width="120" height="60" as="geometry"/>
                </mxCell>
                <mxCell id="update-tracking" value="Update Tracking&#xa;Information" style="ellipse;whiteSpace=wrap;html=1;fillColor=#d5e8d4;strokeColor=#82b366;" parent="1" vertex="1">
                    <mxGeometry x="780" y="620" width="120" height="60" as="geometry"/>
                </mxCell>
                <mxCell id="validate-user" value="Validate User" style="ellipse;whiteSpace=wrap;html=1;fillColor=#fff2cc;strokeColor=#d6b656;" parent="1" vertex="1">
                    <mxGeometry x="650" y="360" width="120" height="60" as="geometry"/>
                </mxCell>
                <mxCell id="send-notification" value="Send&#xa;Notification" style="ellipse;whiteSpace=wrap;html=1;fillColor=#fff2cc;strokeColor=#d6b656;" parent="1" vertex="1">
                    <mxGeometry x="350" y="640" width="120" height="60" as="geometry"/>
                </mxCell>
                <mxCell id="customer-browse" value="" style="endArrow=none;html=1;rounded=0;exitX=1;exitY=0.3333333333333333;exitDx=0;exitDy=0;exitPerimeter=0;entryX=0;entryY=0.5;entryDx=0;entryDy=0;" parent="1" source="customer-actor" target="browse-products" edge="1">
                    <mxGeometry width="50" height="50" relative="1" as="geometry">
                        <mxPoint x="400" y="400" as="sourcePoint"/>
                        <mxPoint x="450" y="350" as="targetPoint"/>
                    </mxGeometry>
                </mxCell>
                <mxCell id="customer-search" value="" style="endArrow=none;html=1;rounded=0;exitX=1;exitY=0.3333333333333333;exitDx=0;exitDy=0;exitPerimeter=0;entryX=0;entryY=0.5;entryDx=0;entryDy=0;" parent="1" source="customer-actor" target="search-products" edge="1">
                    <mxGeometry width="50" height="50" relative="1" as="geometry">
                        <mxPoint x="400" y="400" as="sourcePoint"/>
                        <mxPoint x="450" y="350" as="targetPoint"/>
                    </mxGeometry>
                </mxCell>
                <mxCell id="customer-register" value="" style="endArrow=none;html=1;rounded=0;exitX=1;exitY=0.3333333333333333;exitDx=0;exitDy=0;exitPerimeter=0;entryX=0;entryY=0.5;entryDx=0;entryDy=0;" parent="1" source="customer-actor" target="register-account" edge="1">
                    <mxGeometry width="50" height="50" relative="1" as="geometry">
                        <mxPoint x="400" y="400" as="sourcePoint"/>
                        <mxPoint x="450" y="350" as="targetPoint"/>
                    </mxGeometry>
                </mxCell>
                <mxCell id="customer-login" value="" style="endArrow=none;html=1;rounded=0;exitX=1;exitY=0.3333333333333333;exitDx=0;exitDy=0;exitPerimeter=0;entryX=0;entryY=0.5;entryDx=0;entryDy=0;" parent="1" source="customer-actor" target="login" edge="1">
                    <mxGeometry width="50" height="50" relative="1" as="geometry">
                        <mxPoint x="400" y="400" as="sourcePoint"/>
                        <mxPoint x="450" y="350" as="targetPoint"/>
                    </mxGeometry>
                </mxCell>
                <mxCell id="customer-addcart" value="" style="endArrow=none;html=1;rounded=0;exitX=1;exitY=0.3333333333333333;exitDx=0;exitDy=0;exitPerimeter=0;entryX=0;entryY=0.5;entryDx=0;entryDy=0;" parent="1" source="customer-actor" target="add-to-cart" edge="1">
                    <mxGeometry width="50" height="50" relative="1" as="geometry">
                        <mxPoint x="400" y="400" as="sourcePoint"/>
                        <mxPoint x="450" y="350" as="targetPoint"/>
                    </mxGeometry>
                </mxCell>
                <mxCell id="customer-viewcart" value="" style="endArrow=none;html=1;rounded=0;exitX=1;exitY=0.3333333333333333;exitDx=0;exitDy=0;exitPerimeter=0;entryX=0;entryY=0.5;entryDx=0;entryDy=0;" parent="1" source="customer-actor" target="view-cart" edge="1">
                    <mxGeometry width="50" height="50" relative="1" as="geometry">
                        <mxPoint x="400" y="400" as="sourcePoint"/>
                        <mxPoint x="450" y="350" as="targetPoint"/>
                    </mxGeometry>
                </mxCell>
                <mxCell id="customer-checkout" value="" style="endArrow=none;html=1;rounded=0;exitX=1;exitY=0.3333333333333333;exitDx=0;exitDy=0;exitPerimeter=0;entryX=0;entryY=0.5;entryDx=0;entryDy=0;" parent="1" source="customer-actor" target="checkout" edge="1">
                    <mxGeometry width="50" height="50" relative="1" as="geometry">
                        <mxPoint x="400" y="400" as="sourcePoint"/>
                        <mxPoint x="450" y="350" as="targetPoint"/>
                    </mxGeometry>
                </mxCell>
                <mxCell id="customer-track" value="" style="endArrow=none;html=1;rounded=0;exitX=1;exitY=0.3333333333333333;exitDx=0;exitDy=0;exitPerimeter=0;entryX=0;entryY=0.5;entryDx=0;entryDy=0;" parent="1" source="customer-actor" target="track-order" edge="1">
                    <mxGeometry width="50" height="50" relative="1" as="geometry">
                        <mxPoint x="400" y="400" as="sourcePoint"/>
                        <mxPoint x="450" y="350" as="targetPoint"/>
                    </mxGeometry>
                </mxCell>
                <mxCell id="customer-history" value="" style="endArrow=none;html=1;rounded=0;exitX=1;exitY=0.3333333333333333;exitDx=0;exitDy=0;exitPerimeter=0;entryX=0;entryY=0.5;entryDx=0;entryDy=0;" parent="1" source="customer-actor" target="view-order-history" edge="1">
                    <mxGeometry width="50" height="50" relative="1" as="geometry">
                        <mxPoint x="400" y="400" as="sourcePoint"/>
                        <mxPoint x="450" y="350" as="targetPoint"/>
                    </mxGeometry>
                </mxCell>
                <mxCell id="customer-review" value="" style="endArrow=none;html=1;rounded=0;exitX=1;exitY=0.3333333333333333;exitDx=0;exitDy=0;exitPerimeter=0;entryX=0;entryY=0.5;entryDx=0;entryDy=0;" parent="1" source="customer-actor" target="write-review" edge="1">
                    <mxGeometry width="50" height="50" relative="1" as="geometry">
                        <mxPoint x="400" y="400" as="sourcePoint"/>
                        <mxPoint x="450" y="350" as="targetPoint"/>
                    </mxGeometry>
                </mxCell>
                <mxCell id="customer-profile" value="" style="endArrow=none;html=1;rounded=0;exitX=1;exitY=0.3333333333333333;exitDx=0;exitDy=0;exitPerimeter=0;entryX=0;entryY=0.5;entryDx=0;entryDy=0;" parent="1" source="customer-actor" target="manage-profile" edge="1">
                    <mxGeometry width="50" height="50" relative="1" as="geometry">
                        <mxPoint x="400" y="400" as="sourcePoint"/>
                        <mxPoint x="450" y="350" as="targetPoint"/>
                    </mxGeometry>
                </mxCell>
                <mxCell id="admin-products" value="" style="endArrow=none;html=1;rounded=0;exitX=1;exitY=0.3333333333333333;exitDx=0;exitDy=0;exitPerimeter=0;entryX=0;entryY=0.5;entryDx=0;entryDy=0;" parent="1" source="admin-actor" target="manage-products" edge="1">
                    <mxGeometry width="50" height="50" relative="1" as="geometry">
                        <mxPoint x="400" y="400" as="sourcePoint"/>
                        <mxPoint x="450" y="350" as="targetPoint"/>
                    </mxGeometry>
                </mxCell>
                <mxCell id="admin-users" value="" style="endArrow=none;html=1;rounded=0;exitX=1;exitY=0.3333333333333333;exitDx=0;exitDy=0;exitPerimeter=0;entryX=0;entryY=0.5;entryDx=0;entryDy=0;" parent="1" source="admin-actor" target="manage-users" edge="1">
                    <mxGeometry width="50" height="50" relative="1" as="geometry">
                        <mxPoint x="400" y="400" as="sourcePoint"/>
                        <mxPoint x="450" y="350" as="targetPoint"/>
                    </mxGeometry>
                </mxCell>
                <mxCell id="admin-reports" value="" style="endArrow=none;html=1;rounded=0;exitX=1;exitY=0.3333333333333333;exitDx=0;exitDy=0;exitPerimeter=0;entryX=0;entryY=0.5;entryDx=0;entryDy=0;" parent="1" source="admin-actor" target="view-reports" edge="1">
                    <mxGeometry width="50" height="50" relative="1" as="geometry">
                        <mxPoint x="400" y="400" as="sourcePoint"/>
                        <mxPoint x="450" y="350" as="targetPoint"/>
                    </mxGeometry>
                </mxCell>
                <mxCell id="admin-orders" value="" style="endArrow=none;html=1;rounded=0;exitX=1;exitY=0.3333333333333333;exitDx=0;exitDy=0;exitPerimeter=0;entryX=0;entryY=0.5;entryDx=0;entryDy=0;" parent="1" source="admin-actor" target="manage-orders" edge="1">
                    <mxGeometry width="50" height="50" relative="1" as="geometry">
                        <mxPoint x="400" y="400" as="sourcePoint"/>
                        <mxPoint x="450" y="350" as="targetPoint"/>
                    </mxGeometry>
                </mxCell>
                <mxCell id="admin-categories" value="" style="endArrow=none;html=1;rounded=0;exitX=1;exitY=0.3333333333333333;exitDx=0;exitDy=0;exitPerimeter=0;entryX=0;entryY=0.5;entryDx=0;entryDy=0;" parent="1" source="admin-actor" target="manage-categories" edge="1">
                    <mxGeometry width="50" height="50" relative="1" as="geometry">
                        <mxPoint x="400" y="400" as="sourcePoint"/>
                        <mxPoint x="450" y="350" as="targetPoint"/>
                    </mxGeometry>
                </mxCell>
                <mxCell id="admin-inventory" value="" style="endArrow=none;html=1;rounded=0;exitX=1;exitY=0.3333333333333333;exitDx=0;exitDy=0;exitPerimeter=0;entryX=0;entryY=0.5;entryDx=0;entryDy=0;" parent="1" source="admin-actor" target="manage-inventory" edge="1">
                    <mxGeometry width="50" height="50" relative="1" as="geometry">
                        <mxPoint x="400" y="400" as="sourcePoint"/>
                        <mxPoint x="450" y="350" as="targetPoint"/>
                    </mxGeometry>
                </mxCell>
                <mxCell id="admin-refunds" value="" style="endArrow=none;html=1;rounded=0;exitX=1;exitY=0.3333333333333333;exitDx=0;exitDy=0;exitPerimeter=0;entryX=0;entryY=0.5;entryDx=0;entryDy=0;" parent="1" source="admin-actor" target="process-refunds" edge="1">
                    <mxGeometry width="50" height="50" relative="1" as="geometry">
                        <mxPoint x="400" y="400" as="sourcePoint"/>
                        <mxPoint x="450" y="350" as="targetPoint"/>
                    </mxGeometry>
                </mxCell>
                <mxCell id="payment-process" value="" style="endArrow=none;html=1;rounded=0;exitX=0;exitY=0.3333333333333333;exitDx=0;exitDy=0;exitPerimeter=0;entryX=1;entryY=0.5;entryDx=0;entryDy=0;" parent="1" source="payment-actor" target="process-payment" edge="1">
                    <mxGeometry width="50" height="50" relative="1" as="geometry">
                        <mxPoint x="400" y="400" as="sourcePoint"/>
                        <mxPoint x="450" y="350" as="targetPoint"/>
                    </mxGeometry>
                </mxCell>
                <mxCell id="shipping-calculate" value="" style="endArrow=none;html=1;rounded=0;exitX=0;exitY=0.3333333333333333;exitDx=0;exitDy=0;exitPerimeter=0;entryX=1;entryY=0.5;entryDx=0;entryDy=0;" parent="1" source="shipping-actor" target="calculate-shipping" edge="1">
                    <mxGeometry width="50" height="50" relative="1" as="geometry">
                        <mxPoint x="400" y="400" as="sourcePoint"/>
                        <mxPoint x="450" y="350" as="targetPoint"/>
                    </mxGeometry>
                </mxCell>
                <mxCell id="shipping-tracking" value="" style="endArrow=none;html=1;rounded=0;exitX=0;exitY=0.3333333333333333;exitDx=0;exitDy=0;exitPerimeter=0;entryX=1;entryY=0.5;entryDx=0;entryDy=0;" parent="1" source="shipping-actor" target="update-tracking" edge="1">
                    <mxGeometry width="50" height="50" relative="1" as="geometry">
                        <mxPoint x="400" y="400" as="sourcePoint"/>
                        <mxPoint x="450" y="350" as="targetPoint"/>
                    </mxGeometry>
                </mxCell>
                <mxCell id="checkout-include-payment" value="&amp;lt;&amp;lt;include&amp;gt;&amp;gt;" style="endArrow=open;endSize=12;dashed=1;html=1;rounded=0;exitX=1;exitY=0.5;exitDx=0;exitDy=0;entryX=0;entryY=0.5;entryDx=0;entryDy=0;" parent="1" source="checkout" target="make-payment" edge="1">
                    <mxGeometry width="160" relative="1" as="geometry">
                        <mxPoint x="400" y="400" as="sourcePoint"/>
                        <mxPoint x="560" y="400" as="targetPoint"/>
                    </mxGeometry>
                </mxCell>
                <mxCell id="payment-include-validate" value="&amp;lt;&amp;lt;include&amp;gt;&amp;gt;" style="endArrow=open;endSize=12;dashed=1;html=1;rounded=0;exitX=1;exitY=1;exitDx=0;exitDy=0;entryX=0;entryY=0;entryDx=0;entryDy=0;" parent="1" source="make-payment" target="validate-user" edge="1">
                    <mxGeometry width="160" relative="1" as="geometry">
                        <mxPoint x="400" y="400" as="sourcePoint"/>
                        <mxPoint x="560" y="400" as="targetPoint"/>
                    </mxGeometry>
                </mxCell>
                <mxCell id="checkout-include-notify" value="&amp;lt;&amp;lt;include&amp;gt;&amp;gt;" style="endArrow=open;endSize=12;dashed=1;html=1;rounded=0;exitX=0.5;exitY=1;exitDx=0;exitDy=0;entryX=0.5;entryY=0;entryDx=0;entryDy=0;" parent="1" source="checkout" target="send-notification" edge="1">
                    <mxGeometry width="160" relative="1" as="geometry">
                        <mxPoint x="400" y="400" as="sourcePoint"/>
                        <mxPoint x="560" y="400" as="targetPoint"/>
                    </mxGeometry>
                </mxCell>
                <mxCell id="payment-extend-process" value="&amp;lt;&amp;lt;extend&amp;gt;&amp;gt;" style="endArrow=open;endSize=12;dashed=1;html=1;rounded=0;exitX=1;exitY=0.5;exitDx=0;exitDy=0;entryX=0;entryY=0.5;entryDx=0;entryDy=0;" parent="1" source="make-payment" target="process-payment" edge="1">
                    <mxGeometry width="160" relative="1" as="geometry">
                        <mxPoint x="400" y="400" as="sourcePoint"/>
                        <mxPoint x="560" y="400" as="targetPoint"/>
                    </mxGeometry>
                </mxCell>
                <mxCell id="legend-box" value="" style="rounded=0;whiteSpace=wrap;html=1;fillColor=none;strokeColor=#000000;strokeWidth=1;" parent="1" vertex="1">
                    <mxGeometry x="50" y="650" width="200" height="120" as="geometry"/>
                </mxCell>
                <mxCell id="legend-title" value="Legend" style="text;html=1;strokeColor=none;fillColor=none;align=center;verticalAlign=middle;whiteSpace=wrap;rounded=0;fontSize=14;fontStyle=1;" parent="1" vertex="1">
                    <mxGeometry x="120" y="655" width="60" height="20" as="geometry"/>
                </mxCell>
                <mxCell id="legend-customer" value="Customer Use Cases" style="ellipse;whiteSpace=wrap;html=1;fillColor=#dae8fc;strokeColor=#6c8ebf;fontSize=8;" parent="1" vertex="1">
                    <mxGeometry x="60" y="680" width="60" height="20" as="geometry"/>
                </mxCell>
                <mxCell id="legend-admin" value="Admin Use Cases" style="ellipse;whiteSpace=wrap;html=1;fillColor=#f8cecc;strokeColor=#b85450;fontSize=8;" parent="1" vertex="1">
                    <mxGeometry x="130" y="680" width="60" height="20" as="geometry"/>
                </mxCell>
                <mxCell id="legend-shared" value="Shared Use Cases" style="ellipse;whiteSpace=wrap;html=1;fillColor=#fff2cc;strokeColor=#d6b656;fontSize=8;" parent="1" vertex="1">
                    <mxGeometry x="60" y="710" width="60" height="20" as="geometry"/>
                </mxCell>
                <mxCell id="legend-external" value="External Systems" style="ellipse;whiteSpace=wrap;html=1;fillColor=#e1d5e7;strokeColor=#9673a6;fontSize=8;" parent="1" vertex="1">
                    <mxGeometry x="130" y="710" width="60" height="20" as="geometry"/>
                </mxCell>
                <mxCell id="legend-include" value="&amp;lt;&amp;lt;include&amp;gt;&amp;gt;" style="endArrow=open;endSize=8;dashed=1;html=1;rounded=0;fontSize=8;" parent="1" edge="1">
                    <mxGeometry width="80" relative="1" as="geometry">
                        <mxPoint x="60" y="745" as="sourcePoint"/>
                        <mxPoint x="100" y="745" as="targetPoint"/>
                    </mxGeometry>
                </mxCell>
                <mxCell id="legend-extend" value="&amp;lt;&amp;lt;extend&amp;gt;&amp;gt;" style="endArrow=open;endSize=8;dashed=1;html=1;rounded=0;fontSize=8;" parent="1" edge="1">
                    <mxGeometry width="80" relative="1" as="geometry">
                        <mxPoint x="130" y="745" as="sourcePoint"/>
                        <mxPoint x="170" y="745" as="targetPoint"/>
                    </mxGeometry>
                </mxCell>
            </root>
        </mxGraphModel>
    </diagram>
</mxfile>